# xmcd
# Copyright (C) 1995-1998 Ti Kan
#
# Track frame offsets:
#       150
#       28118
#       44705
#       61312
#       84232
#       105640
#       121252
#       138504
#       156479
#       173937
#       201125
#       218400
#       231776
#       249280
#       259541
#       279492
#       297844
#       321235
#       334784
#
# Disc length: 4698 seconds
#
# Revision: 0
# Processed by: cddbd v1.5.2PL0 Copyright (c) Steve Scherf et al.
# Submitted via: CD-Transfer v1.0
#
DISCID=14125813
DTITLE=Hebulete - 
DYEAR=1900
DGENRE=
TTITLE0=Meat Is Murder
TTITLE1=Reptilla
TTITLE2=Radio Skaweto
TTITLE3=Turning Up The Beat
TTITLE4=Runnaway Child
TTITLE5=Guerilla Radio
TTITLE6=Coma Girl
TTITLE7=Toruist
TTITLE8=Lonely Train
TTITLE9=Police And Thieves
TTITLE10=Where Fugees At?
TTITLE11=Enemy
TTITLE12=Monkey Wrench
TTITLE13=You Really Got Me
TTITLE14=Toyboy
TTITLE15=Fisch
TTITLE16=The Shock Of The Lightning
TTITLE17=Don't Look Back Into The Sun
TTITLE18=Dance With Somebody
EXTD=
EXTT0=
EXTT1=
EXTT2=
EXTT3=
EXTT4=
EXTT5=
EXTT6=
EXTT7=
EXTT8=
EXTT9=
EXTT10=
EXTT11=
EXTT12=
EXTT13=
EXTT14=
EXTT15=
EXTT16=
EXTT17=
EXTT18=
PLAYORDER=
